<?xml version="1.0" encoding="UTF-8"?>
<svg version="1.1" xmlns="http://www.w3.org/2000/svg" width="225" height="225">
<path d="M0 0 C74.25 0 148.5 0 225 0 C225 74.25 225 148.5 225 225 C150.75 225 76.5 225 0 225 C0 150.75 0 76.5 0 0 Z " fill="#FDFEFE" transform="translate(0,0)"/>
<path d="M0 0 C74.25 0 148.5 0 225 0 C225 74.25 225 148.5 225 225 C150.75 225 76.5 225 0 225 C0 150.75 0 76.5 0 0 Z M107.59594727 12.30151367 C85.31802322 29.21016448 59.64617583 42.48027524 33.03125 51.11328125 C30.59028812 52.17885499 29.58010111 52.83073407 28 55 C27.69873209 57.61248265 27.57981512 59.98788365 27.59594727 62.6015625 C27.58908401 63.37437057 27.58222076 64.14717865 27.57514954 64.94340515 C27.55681849 67.50412277 27.56073136 70.06423065 27.56640625 72.625 C27.56184404 74.41040241 27.55653835 76.19580307 27.55052185 77.98120117 C27.54157585 81.73054107 27.54402674 85.47966822 27.55395508 89.22900391 C27.56538537 94.00919219 27.5453329 98.78863522 27.51603794 103.56872559 C27.49758163 107.26133828 27.49798812 110.95377603 27.50367546 114.64642334 C27.50382786 116.40689125 27.49785181 118.16737164 27.48538399 119.92779541 C27.34053181 143.75696595 37.949438 156.44989412 54 173 C54.79696289 173.82951172 55.59392578 174.65902344 56.41503906 175.51367188 C80.75599727 202.12237901 80.75599727 202.12237901 112.97583008 216.10205078 C116.69229085 215.91468127 119.59929697 214.32938523 122.8125 212.5625 C123.50899658 212.19487549 124.20549316 211.82725098 124.9230957 211.44848633 C131.02803164 208.14842577 136.59155331 204.35061814 142 200 C142.8971875 199.30519531 143.794375 198.61039063 144.71875 197.89453125 C152.77503657 191.39650011 160.06242183 184.12135085 167.375 176.8125 C167.89710052 176.29139648 168.41920105 175.77029297 168.9571228 175.23339844 C179.93991816 164.25436498 179.93991816 164.25436498 189.6875 152.1875 C190.22761719 151.45917969 190.76773438 150.73085937 191.32421875 149.98046875 C197.3624332 139.24117359 197.60932645 129.34428719 197.56640625 117.34765625 C197.57164963 115.5569171 197.57792871 113.76618071 197.58518982 111.97544861 C197.59554065 108.24448528 197.59110322 104.51390475 197.57641602 100.78295898 C197.559135 96.00215042 197.58286488 91.22253333 197.61790562 86.44185734 C197.63984321 82.75379988 197.63844874 79.06603005 197.6301403 75.37792778 C197.62932072 73.61446248 197.63618548 71.8509761 197.65091133 70.0875721 C197.66831414 67.62932235 197.65385893 65.17324951 197.63110352 62.71508789 C197.64279572 61.98934067 197.65448792 61.26359344 197.66653442 60.51585388 C197.59559514 56.75333358 197.29169772 55.293794 194.59646606 52.57919312 C192.24917043 51.15154761 190.22141318 50.14337491 187.61328125 49.31640625 C186.34931519 48.89536621 186.34931519 48.89536621 185.05981445 48.46582031 C183.6998938 48.01867676 183.6998938 48.01867676 182.3125 47.5625 C158.05249885 39.12814369 135.28193616 26.34766205 115.0546875 10.546875 C111.56007882 7.91595288 110.8479549 9.82311543 107.59594727 12.30151367 Z " fill="#FDFEFE" transform="translate(0,0)"/>
<path d="M0 0 C0.53625 0.35763428 1.0725 0.71526855 1.625 1.08374023 C3.1032466 2.06892751 4.58262038 3.05242369 6.0625 4.03515625 C8.17533836 5.44839787 10.27803962 6.87224673 12.375 8.30859375 C32.10722486 21.75911398 53.4745202 33.18030968 76.1496582 40.80712891 C83.04892725 43.16557973 83.04892725 43.16557973 85 46 C85.30126791 48.61248265 85.42018488 50.98788365 85.40405273 53.6015625 C85.41091599 54.37437057 85.41777924 55.14717865 85.42485046 55.94340515 C85.44318151 58.50412277 85.43926864 61.06423065 85.43359375 63.625 C85.43815596 65.41040241 85.44346165 67.19580307 85.44947815 68.98120117 C85.45842415 72.73054107 85.45597326 76.47966822 85.44604492 80.22900391 C85.43461463 85.00919219 85.4546671 89.78863522 85.48396206 94.56872559 C85.50241837 98.26133828 85.50201188 101.95377603 85.49632454 105.64642334 C85.49617214 107.40689125 85.50214819 109.16737164 85.51461601 110.92779541 C85.66294113 135.32828888 74.43556115 148.08991168 58 165 C57.23623047 165.79100098 56.47246094 166.58200195 55.68554688 167.39697266 C22.34683924 201.81925644 22.34683924 201.81925644 3 207 C-2.79305992 206.76105085 -7.1161355 205.40194475 -12.1875 202.5625 C-12.83114502 202.20905518 -13.47479004 201.85561035 -14.13793945 201.49145508 C-29.62691022 192.72788334 -42.18265711 179.88258253 -54.72268677 167.45153809 C-56.14468591 166.04242608 -57.57021463 164.63687873 -58.99584961 163.23144531 C-71.64054881 150.60142168 -84.2891757 137.64187293 -84.30639648 118.83325195 C-84.31472 118.04861572 -84.32304352 117.26397949 -84.33161926 116.45556641 C-84.35555692 113.8830865 -84.3644678 111.3108604 -84.37109375 108.73828125 C-84.38006681 106.94182767 -84.38918878 105.14537483 -84.39845276 103.34892273 C-84.41489704 99.59416897 -84.42263553 95.83950397 -84.42553711 92.0847168 C-84.4309409 87.27249085 -84.46872198 82.46109633 -84.51428127 77.64910603 C-84.54399702 73.9439334 -84.55125934 70.23896332 -84.55226326 66.53368187 C-84.55647028 64.75902655 -84.56892394 62.98437089 -84.58978081 61.20983315 C-84.61660527 58.73211377 -84.61189986 56.25635431 -84.59936523 53.77856445 C-84.61419952 53.04653305 -84.62903381 52.31450165 -84.64431763 51.56028748 C-84.58992047 47.78884463 -84.30384839 46.30742894 -81.60836792 43.58018494 C-79.16050814 42.09723803 -76.97181498 41.03968037 -74.26171875 40.140625 C-73.36718994 39.83382812 -72.47266113 39.52703125 -71.55102539 39.2109375 C-70.60606201 38.89382812 -69.66109863 38.57671875 -68.6875 38.25 C-59.68469724 35.10134945 -51.24519756 31.48771775 -42.84716797 26.98242188 C-41.01599377 26.00850634 -39.1699756 25.07109812 -37.31640625 24.140625 C-24.05773999 17.40255678 -11.80873732 9.01324011 0 0 Z M-6 25.8125 C-21.82886917 38.1617578 -40.38601931 46.84058666 -59.18774414 53.60449219 C-63.83200856 55.28877109 -63.83200856 55.28877109 -67 59 C-67.31827474 61.73161739 -67.31827474 61.73161739 -67.29052734 64.85742188 C-67.30328705 66.06297729 -67.31604675 67.26853271 -67.32919312 68.51062012 C-67.33141876 69.81680298 -67.33364441 71.12298584 -67.3359375 72.46875 C-67.34236958 73.8281671 -67.34909825 75.18758283 -67.35610962 76.54699707 C-67.36809222 79.40180663 -67.37179002 82.25649519 -67.37060547 85.11132812 C-67.37040353 88.74141334 -67.39756942 92.37070458 -67.43214989 96.00060272 C-67.45458214 98.81306393 -67.45843789 101.62534003 -67.45738602 104.43788147 C-67.4608486 106.41791607 -67.48242898 108.39789285 -67.50448608 110.37780762 C-67.45449368 120.37727079 -65.89483707 129.50551713 -59.125 137.25 C-58.33738281 138.15492188 -57.54976562 139.05984375 -56.73828125 139.9921875 C-55.82709083 140.99621873 -54.91421991 141.99872649 -54 143 C-53.48614746 143.57266602 -52.97229492 144.14533203 -52.44287109 144.73535156 C-30.14919037 170.17455506 -30.14919037 170.17455506 -1 186 C21.34021297 183.87573252 44.26270678 155.91510039 58 140 C66.70384509 129.32133292 68.46452101 120.36508785 68.43359375 106.69921875 C68.43816362 105.33160648 68.44347157 103.96399649 68.44947815 102.59638977 C68.45835851 99.74800198 68.45604037 96.89989542 68.44604492 94.05151367 C68.43449393 90.40518208 68.45488409 86.75981019 68.48396206 83.11360455 C68.50230697 80.29712298 68.50203631 77.480873 68.49632454 74.66434669 C68.4960973 72.66793822 68.51298101 70.67155145 68.53013611 68.67521667 C68.52075516 67.4632814 68.51137421 66.25134613 68.50170898 65.00268555 C68.50154282 63.9372905 68.50137665 62.87189545 68.50120544 61.7742157 C67.87569948 58.31198582 66.7097755 57.17137186 64 55 C61.50999284 53.71147436 61.50999284 53.71147436 58.73828125 52.73828125 C57.70985107 52.34624512 56.6814209 51.95420898 55.62182617 51.55029297 C54.52974854 51.14182129 53.4376709 50.73334961 52.3125 50.3125 C34.5943482 43.44934239 18.45313495 35.02447041 3.62109375 23.03125 C-0.46258566 20.43343948 -2.79616051 23.21393132 -6 25.8125 Z " fill="#2892D1" transform="translate(112,9)"/>
<path d="M0 0 C3.3125 0.5625 3.3125 0.5625 5.25 1.6875 C6.85023673 4.51144718 6.75984094 6.36720761 6.3125 9.5625 C3.80406054 13.63871413 0.19118846 16.46711338 -3.4140625 19.54296875 C-5.94342427 21.78984166 -8.31183707 24.15394327 -10.6875 26.5625 C-14.20338624 30.1212629 -17.80704096 33.45723009 -21.609375 36.703125 C-25.02277696 39.75722149 -28.19393054 43.04998609 -31.390625 46.328125 C-36.59490057 51.39078763 -36.59490057 51.39078763 -41.04296875 52.08984375 C-45.67557328 51.4195312 -47.86051904 49.35411121 -51 46.125 C-52.13085325 45.0201603 -53.26237083 43.91600018 -54.39453125 42.8125 C-54.94834473 42.26207031 -55.5021582 41.71164063 -56.07275391 41.14453125 C-58.37339166 38.89050454 -60.77584824 36.75907749 -63.1875 34.625 C-63.97898437 33.90828125 -64.77046875 33.1915625 -65.5859375 32.453125 C-66.84551731 31.31997142 -68.11778604 30.20035881 -69.4140625 29.109375 C-71.90096648 26.91423071 -72.65467952 25.76762802 -73.1875 22.4375 C-72.6875 19.5625 -72.6875 19.5625 -71.625 17.6875 C-68.42103824 15.82713511 -66.34989153 16.0687772 -62.6875 16.5625 C-59.65207569 18.63318287 -57.17896823 21.18320064 -54.625 23.8125 C-50.19944292 28.24224399 -46.06188675 32.30936106 -40.6875 35.5625 C-38.164779 33.2103496 -35.64468302 30.85540413 -33.125 28.5 C-32.42052734 27.84322266 -31.71605469 27.18644531 -30.99023438 26.50976562 C-26.98649394 22.76433102 -23.06497556 18.95717059 -19.20385742 15.06518555 C-17.41297482 13.29045001 -15.54852703 11.62948468 -13.625 10 C-11.07984703 7.83661997 -8.83324923 5.6268994 -6.625 3.125 C-3.6875 0.5625 -3.6875 0.5625 0 0 Z " fill="#5AB6DF" transform="translate(148.6875,92.4375)"/>
</svg>
